# xmcd
#
# Track frame offsets: 
#        150
#        14651
#        33704
#        48149
#
# Disc length: 893 seconds
#
# Revision: 1
# Processed by: cddbd v1.5.2PL0 Copyright (c) Steve Scherf et al.
# Submitted via: ExactAudioCopyFreeDBPlugin 1.0
#
DISCID=2d037b04
DTITLE=Printemps - WAO-WAO Powerful day!
DYEAR=2015
DGENRE=Anime
TTITLE0=WAO-WAO Powerful day!
TTITLE1=NO EXIT ORION
TTITLE2=WAO-WAO Powerful day!(Off Vocal)
TTITLE3=NO EXIT ORION(Off Vocal)
EXTD=ラブライブ！
EXTT0=
EXTT1=
EXTT2=
EXTT3=
PLAYORDER=
